<svg xmlns="http://www.w3.org/2000/svg" xmlns:xlink="http://www.w3.org/1999/xlink" version="1.1" width="256" height="256" viewBox="0 0 256 256" xml:space="preserve">
<g style="stroke: none; stroke-width: 0; stroke-dasharray: none; stroke-linecap: butt; stroke-linejoin: miter; stroke-miterlimit: 10; fill: none; fill-rule: nonzero; opacity: 1;" transform="translate(1.4065934065934016 1.4065934065934016) scale(2.81 2.81)">
	<path d="M 82.513 31.238 c 0.06 -0.705 0.097 -1.415 0.097 -2.135 c 0 -13.746 -11.143 -24.889 -24.889 -24.889 c -8.387 0 -15.799 4.153 -20.309 10.509 c -2.801 -1.921 -6.189 -3.049 -9.842 -3.049 c -9.626 0 -17.43 7.804 -17.43 17.43 c 0 0.293 0.03 0.579 0.044 0.869 C 4.847 31.78 1 36.82 1 42.768 c 0 7.467 6.053 13.52 13.52 13.52 H 75.48 c 7.467 0 13.52 -6.053 13.52 -13.52 C 89 37.881 86.398 33.613 82.513 31.238 z" style="stroke: none; stroke-width: 1; stroke-dasharray: none; stroke-linecap: butt; stroke-linejoin: miter; stroke-miterlimit: 10; fill: rgb(102,191,226); fill-rule: nonzero; opacity: 1;" transform=" matrix(1 0 0 1 0 0) " stroke-linecap="round"/>
	<path d="M 61.122 61.569 C 57.83 67.05 51.845 70.737 45 70.737 c -6.846 0 -12.831 -3.687 -16.122 -9.169 l -17.386 0 l 2.995 7.231 c 0.47 1.135 1.354 2.019 2.489 2.489 c 1.134 0.47 2.384 0.47 3.52 0 c 2.252 -0.932 3.85 0.417 4.287 0.853 c 0.436 0.436 1.786 2.034 0.853 4.287 c -0.971 2.342 0.145 5.038 2.489 6.01 l 7.231 2.996 c 0.568 0.235 1.164 0.352 1.761 0.352 c 0.597 0 1.193 -0.117 1.76 -0.353 c 1.135 -0.47 2.02 -1.354 2.489 -2.488 c 0.934 -2.254 3.018 -2.428 3.634 -2.428 l 0 0 c 0.616 0 2.701 0.175 3.634 2.43 c 0.971 2.341 3.668 3.455 6.009 2.487 l 7.234 -2.996 c 2.341 -0.971 3.457 -3.667 2.487 -6.009 c -0.933 -2.253 0.417 -3.851 0.853 -4.287 c 0.436 -0.436 2.031 -1.788 4.288 -0.853 c 2.343 0.967 5.037 -0.147 6.009 -2.49 l 2.996 -7.231 L 61.122 61.569 z" style="stroke: none; stroke-width: 1; stroke-dasharray: none; stroke-linecap: butt; stroke-linejoin: miter; stroke-miterlimit: 10; fill: rgb(244,184,77); fill-rule: nonzero; opacity: 1;" transform=" matrix(1 0 0 1 0 0) " stroke-linecap="round"/>
	<path d="M 36.501 47.309 c -0.552 0 -1 -0.447 -1 -1 V 29.36 c 0 -2.018 -1.641 -3.659 -3.659 -3.659 h -2.744 c -2.018 0 -3.659 1.641 -3.659 3.659 v 16.949 c 0 0.553 -0.448 1 -1 1 s -1 -0.447 -1 -1 V 29.36 c 0 -3.12 2.539 -5.659 5.659 -5.659 h 2.744 c 3.12 0 5.659 2.539 5.659 5.659 v 16.949 C 37.501 46.861 37.054 47.309 36.501 47.309 z" style="stroke: none; stroke-width: 1; stroke-dasharray: none; stroke-linecap: butt; stroke-linejoin: miter; stroke-miterlimit: 10; fill: rgb(0,0,0); fill-rule: nonzero; opacity: 1;" transform=" matrix(1 0 0 1 0 0) " stroke-linecap="round"/>
	<path d="M 36.501 36.504 H 24.44 c -0.552 0 -1 -0.448 -1 -1 s 0.448 -1 1 -1 h 12.061 c 0.552 0 1 0.448 1 1 S 37.054 36.504 36.501 36.504 z" style="stroke: none; stroke-width: 1; stroke-dasharray: none; stroke-linecap: butt; stroke-linejoin: miter; stroke-miterlimit: 10; fill: rgb(0,0,0); fill-rule: nonzero; opacity: 1;" transform=" matrix(1 0 0 1 0 0) " stroke-linecap="round"/>
	<path d="M 53.045 36.504 h -7.438 c -0.552 0 -1 -0.448 -1 -1 V 24.701 c 0 -0.552 0.448 -1 1 -1 h 7.438 c 2.829 0 5.131 2.302 5.131 5.131 v 2.542 C 58.176 34.203 55.874 36.504 53.045 36.504 z M 46.606 34.504 h 6.438 c 1.727 0 3.131 -1.404 3.131 -3.131 v -2.542 c 0 -1.727 -1.404 -3.131 -3.131 -3.131 h -6.438 V 34.504 z" style="stroke: none; stroke-width: 1; stroke-dasharray: none; stroke-linecap: butt; stroke-linejoin: miter; stroke-miterlimit: 10; fill: rgb(0,0,0); fill-rule: nonzero; opacity: 1;" transform=" matrix(1 0 0 1 0 0) " stroke-linecap="round"/>
	<path d="M 45.607 47.309 c -0.552 0 -1 -0.447 -1 -1 V 35.504 c 0 -0.552 0.448 -1 1 -1 s 1 0.448 1 1 v 10.804 C 46.607 46.861 46.159 47.309 45.607 47.309 z" style="stroke: none; stroke-width: 1; stroke-dasharray: none; stroke-linecap: butt; stroke-linejoin: miter; stroke-miterlimit: 10; fill: rgb(0,0,0); fill-rule: nonzero; opacity: 1;" transform=" matrix(1 0 0 1 0 0) " stroke-linecap="round"/>
	<path d="M 65.56 47.309 c -0.553 0 -1 -0.447 -1 -1 V 24.701 c 0 -0.552 0.447 -1 1 -1 s 1 0.448 1 1 v 21.607 C 66.56 46.861 66.112 47.309 65.56 47.309 z" style="stroke: none; stroke-width: 1; stroke-dasharray: none; stroke-linecap: butt; stroke-linejoin: miter; stroke-miterlimit: 10; fill: rgb(0,0,0); fill-rule: nonzero; opacity: 1;" transform=" matrix(1 0 0 1 0 0) " stroke-linecap="round"/>
	<path d="M 75.48 57.288 H 14.52 C 6.514 57.288 0 50.774 0 42.768 C 0 36.803 3.644 31.48 9.144 29.29 c -0.002 -0.062 -0.003 -0.125 -0.003 -0.187 c 0 -10.162 8.268 -18.43 18.43 -18.43 c 3.409 0 6.707 0.93 9.596 2.699 c 4.89 -6.378 12.502 -10.159 20.555 -10.159 c 14.275 0 25.889 11.614 25.889 25.89 c 0 0.516 -0.018 1.049 -0.055 1.615 C 87.603 33.426 90 37.886 90 42.768 C 90 50.774 83.486 57.288 75.48 57.288 z M 27.57 12.673 c -9.06 0 -16.43 7.37 -16.43 16.43 c 0 0.169 0.012 0.336 0.023 0.503 l 0.02 0.317 c 0.021 0.446 -0.255 0.853 -0.678 0.996 C 5.418 32.642 2 37.404 2 42.768 c 0 6.904 5.616 12.52 12.52 12.52 H 75.48 c 6.903 0 12.52 -5.616 12.52 -12.52 c 0 -4.386 -2.246 -8.377 -6.008 -10.677 c -0.323 -0.197 -0.507 -0.56 -0.475 -0.938 c 0.063 -0.741 0.093 -1.412 0.093 -2.051 c 0 -13.173 -10.717 -23.89 -23.889 -23.89 c -7.726 0 -15.012 3.771 -19.494 10.088 c -0.315 0.445 -0.93 0.555 -1.381 0.246 C 34.105 13.667 30.897 12.673 27.57 12.673 z" style="stroke: none; stroke-width: 1; stroke-dasharray: none; stroke-linecap: butt; stroke-linejoin: miter; stroke-miterlimit: 10; fill: rgb(0,0,0); fill-rule: nonzero; opacity: 1;" transform=" matrix(1 0 0 1 0 0) " stroke-linecap="round"/>
	<path d="M 37.116 86.787 c -0.735 0 -1.457 -0.145 -2.144 -0.429 l -7.231 -2.995 c -2.853 -1.184 -4.212 -4.466 -3.03 -7.316 c 0.677 -1.635 -0.219 -2.78 -0.636 -3.197 c -0.417 -0.416 -1.563 -1.313 -3.198 -0.637 c -1.381 0.573 -2.902 0.573 -4.285 0 c -1.382 -0.572 -2.458 -1.648 -3.03 -3.03 l -2.995 -7.23 c -0.128 -0.309 -0.093 -0.661 0.092 -0.938 s 0.498 -0.444 0.832 -0.444 l 17.386 -0.001 c 0.351 0 0.677 0.185 0.857 0.485 C 33 66.491 38.707 69.737 45 69.737 c 6.293 0 12 -3.246 15.265 -8.684 c 0.181 -0.301 0.506 -0.485 0.857 -0.485 l 0 0 l 17.387 0.001 c 0.334 0 0.646 0.167 0.831 0.444 s 0.221 0.63 0.093 0.938 l -2.995 7.23 c -1.183 2.848 -4.465 4.208 -7.314 3.032 c -1.637 -0.683 -2.783 0.217 -3.198 0.634 c -0.419 0.418 -1.315 1.563 -0.638 3.198 c 1.181 2.851 -0.178 6.132 -3.027 7.315 l -7.234 2.995 c -2.854 1.177 -6.133 -0.18 -7.315 -3.026 c -0.678 -1.637 -2.121 -1.813 -2.71 -1.813 s -2.033 0.177 -2.71 1.811 c -0.572 1.382 -1.648 2.457 -3.031 3.029 C 38.575 86.643 37.853 86.787 37.116 86.787 z M 22.047 69.962 c 1.793 0 3.031 1.062 3.442 1.474 c 0.547 0.547 2.24 2.551 1.069 5.377 c -0.76 1.832 0.114 3.942 1.949 4.703 l 7.23 2.995 c 0.886 0.367 1.872 0.366 2.754 0 c 0.891 -0.369 1.582 -1.061 1.95 -1.948 c 1.171 -2.825 3.785 -3.045 4.558 -3.045 s 3.387 0.22 4.558 3.047 c 0.76 1.83 2.867 2.702 4.703 1.945 l 7.232 -2.995 c 1.832 -0.761 2.705 -2.87 1.946 -4.702 c -0.932 -2.248 -0.058 -4.252 1.071 -5.378 c 0.545 -0.546 2.548 -2.243 5.376 -1.068 c 1.831 0.756 3.943 -0.118 4.703 -1.95 l 2.422 -5.847 l -15.333 -0.001 c -3.633 5.67 -9.972 9.169 -16.679 9.169 c -6.708 0 -13.046 -3.499 -16.678 -9.169 l -15.333 0.001 l 2.422 5.848 c 0.368 0.889 1.06 1.58 1.948 1.948 c 0.889 0.367 1.867 0.367 2.755 0 C 20.811 70.076 21.458 69.962 22.047 69.962 z" style="stroke: none; stroke-width: 1; stroke-dasharray: none; stroke-linecap: butt; stroke-linejoin: miter; stroke-miterlimit: 10; fill: rgb(0,0,0); fill-rule: nonzero; opacity: 1;" transform=" matrix(1 0 0 1 0 0) " stroke-linecap="round"/>
</g>
</svg>