<svg xmlns="http://www.w3.org/2000/svg" xmlns:xlink="http://www.w3.org/1999/xlink" version="1.1" width="256" height="256" viewBox="0 0 256 256" xml:space="preserve">
<g style="stroke: none; stroke-width: 0; stroke-dasharray: none; stroke-linecap: butt; stroke-linejoin: miter; stroke-miterlimit: 10; fill: none; fill-rule: nonzero; opacity: 1;" transform="translate(1.4065934065934016 1.4065934065934016) scale(2.81 2.81)">
	<path d="M 69.204 54.905 c 9.187 0 16.635 -7.448 16.635 -16.635 v 0 c 0 -9.187 -7.448 -16.635 -16.635 -16.635 h -1.261 C 67.692 10.199 58.36 1 46.863 1 h -3.726 c -11.497 0 -20.829 9.199 -21.08 20.636 h -1.261 c -9.187 0 -16.635 7.448 -16.635 16.635 v 0 c 0 9.187 7.448 16.635 16.635 16.635 H 69.204 z" style="stroke: none; stroke-width: 1; stroke-dasharray: none; stroke-linecap: butt; stroke-linejoin: miter; stroke-miterlimit: 10; fill: rgb(108,191,248); fill-rule: nonzero; opacity: 1;" transform=" matrix(1 0 0 1 0 0) " stroke-linecap="round"/>
	<circle cx="45.003" cy="84.303" r="4.693" style="stroke: none; stroke-width: 1; stroke-dasharray: none; stroke-linecap: butt; stroke-linejoin: miter; stroke-miterlimit: 10; fill: rgb(255,203,92); fill-rule: nonzero; opacity: 1;" transform="  matrix(1 0 0 1 0 0) "/>
	<circle cx="19.723" cy="75.023" r="4.693" style="stroke: none; stroke-width: 1; stroke-dasharray: none; stroke-linecap: butt; stroke-linejoin: miter; stroke-miterlimit: 10; fill: rgb(229,112,85); fill-rule: nonzero; opacity: 1;" transform="  matrix(1 0 0 1 0 0) "/>
	<circle cx="70.273" cy="75.023" r="4.693" style="stroke: none; stroke-width: 1; stroke-dasharray: none; stroke-linecap: butt; stroke-linejoin: miter; stroke-miterlimit: 10; fill: rgb(94,224,83); fill-rule: nonzero; opacity: 1;" transform="  matrix(1 0 0 1 0 0) "/>
	<path d="M 69.204 55.905 H 20.796 c -9.724 0 -17.634 -7.911 -17.634 -17.635 s 7.911 -17.634 17.634 -17.634 h 0.305 C 21.866 9.17 31.552 0 43.137 0 h 3.727 c 11.585 0 21.271 9.17 22.035 20.636 h 0.306 c 9.724 0 17.635 7.911 17.635 17.634 S 78.928 55.905 69.204 55.905 z M 20.796 22.636 c -8.621 0 -15.634 7.014 -15.634 15.634 c 0 8.621 7.014 15.635 15.634 15.635 h 48.408 c 8.621 0 15.635 -7.014 15.635 -15.635 c 0 -8.621 -7.014 -15.634 -15.635 -15.634 h -1.262 c -0.544 0 -0.988 -0.435 -1 -0.978 C 66.705 10.819 57.697 2 46.863 2 h -3.727 c -10.834 0 -19.842 8.819 -20.08 19.658 c -0.012 0.543 -0.456 0.978 -1 0.978 H 20.796 z" style="stroke: none; stroke-width: 1; stroke-dasharray: none; stroke-linecap: butt; stroke-linejoin: miter; stroke-miterlimit: 10; fill: rgb(0,0,0); fill-rule: nonzero; opacity: 1;" transform=" matrix(1 0 0 1 0 0) " stroke-linecap="round"/>
	<path d="M 45 90 c -3.139 0 -5.693 -2.554 -5.693 -5.693 c 0 -3.139 2.554 -5.692 5.693 -5.692 c 3.14 0 5.693 2.554 5.693 5.692 C 50.693 87.446 48.14 90 45 90 z M 45 80.614 c -2.036 0 -3.693 1.656 -3.693 3.692 S 42.964 88 45 88 s 3.693 -1.657 3.693 -3.693 S 47.036 80.614 45 80.614 z" style="stroke: none; stroke-width: 1; stroke-dasharray: none; stroke-linecap: butt; stroke-linejoin: miter; stroke-miterlimit: 10; fill: rgb(0,0,0); fill-rule: nonzero; opacity: 1;" transform=" matrix(1 0 0 1 0 0) " stroke-linecap="round"/>
	<path d="M 45 80.614 c -0.552 0 -1 -0.447 -1 -1 v -8.931 c 0 -0.553 0.448 -1 1 -1 s 1 0.447 1 1 v 8.931 C 46 80.167 45.552 80.614 45 80.614 z" style="stroke: none; stroke-width: 1; stroke-dasharray: none; stroke-linecap: butt; stroke-linejoin: miter; stroke-miterlimit: 10; fill: rgb(0,0,0); fill-rule: nonzero; opacity: 1;" transform=" matrix(1 0 0 1 0 0) " stroke-linecap="round"/>
	<path d="M 45 64.94 c -0.552 0 -1 -0.447 -1 -1 v -9.035 c 0 -0.553 0.448 -1 1 -1 s 1 0.447 1 1 v 9.035 C 46 64.493 45.552 64.94 45 64.94 z" style="stroke: none; stroke-width: 1; stroke-dasharray: none; stroke-linecap: butt; stroke-linejoin: miter; stroke-miterlimit: 10; fill: rgb(0,0,0); fill-rule: nonzero; opacity: 1;" transform=" matrix(1 0 0 1 0 0) " stroke-linecap="round"/>
	<path d="M 19.726 80.719 c -3.139 0 -5.693 -2.554 -5.693 -5.693 s 2.554 -5.693 5.693 -5.693 s 5.693 2.554 5.693 5.693 S 22.865 80.719 19.726 80.719 z M 19.726 71.332 c -2.036 0 -3.693 1.657 -3.693 3.693 s 1.657 3.693 3.693 3.693 s 3.693 -1.657 3.693 -3.693 S 21.762 71.332 19.726 71.332 z" style="stroke: none; stroke-width: 1; stroke-dasharray: none; stroke-linecap: butt; stroke-linejoin: miter; stroke-miterlimit: 10; fill: rgb(0,0,0); fill-rule: nonzero; opacity: 1;" transform=" matrix(1 0 0 1 0 0) " stroke-linecap="round"/>
	<path d="M 32.272 76.025 h -7.854 c -0.552 0 -1 -0.447 -1 -1 s 0.448 -1 1 -1 h 6.854 v -7.301 c 0 -0.553 0.448 -1 1 -1 s 1 0.447 1 1 v 8.301 C 33.272 75.578 32.825 76.025 32.272 76.025 z" style="stroke: none; stroke-width: 1; stroke-dasharray: none; stroke-linecap: butt; stroke-linejoin: miter; stroke-miterlimit: 10; fill: rgb(0,0,0); fill-rule: nonzero; opacity: 1;" transform=" matrix(1 0 0 1 0 0) " stroke-linecap="round"/>
	<path d="M 32.272 61.138 c -0.552 0 -1 -0.447 -1 -1 v -5.232 c 0 -0.553 0.448 -1 1 -1 s 1 0.447 1 1 v 5.232 C 33.272 60.69 32.825 61.138 32.272 61.138 z" style="stroke: none; stroke-width: 1; stroke-dasharray: none; stroke-linecap: butt; stroke-linejoin: miter; stroke-miterlimit: 10; fill: rgb(0,0,0); fill-rule: nonzero; opacity: 1;" transform=" matrix(1 0 0 1 0 0) " stroke-linecap="round"/>
	<path d="M 70.274 80.719 c -3.14 0 -5.693 -2.554 -5.693 -5.693 s 2.554 -5.693 5.693 -5.693 s 5.693 2.554 5.693 5.693 S 73.414 80.719 70.274 80.719 z M 70.274 71.332 c -2.036 0 -3.693 1.657 -3.693 3.693 s 1.657 3.693 3.693 3.693 s 3.693 -1.657 3.693 -3.693 S 72.311 71.332 70.274 71.332 z" style="stroke: none; stroke-width: 1; stroke-dasharray: none; stroke-linecap: butt; stroke-linejoin: miter; stroke-miterlimit: 10; fill: rgb(0,0,0); fill-rule: nonzero; opacity: 1;" transform=" matrix(1 0 0 1 0 0) " stroke-linecap="round"/>
	<path d="M 65.581 76.025 h -7.854 c -0.553 0 -1 -0.447 -1 -1 v -8.301 c 0 -0.553 0.447 -1 1 -1 s 1 0.447 1 1 v 7.301 h 6.854 c 0.553 0 1 0.447 1 1 S 66.134 76.025 65.581 76.025 z" style="stroke: none; stroke-width: 1; stroke-dasharray: none; stroke-linecap: butt; stroke-linejoin: miter; stroke-miterlimit: 10; fill: rgb(0,0,0); fill-rule: nonzero; opacity: 1;" transform=" matrix(1 0 0 1 0 0) " stroke-linecap="round"/>
	<path d="M 57.728 61.138 c -0.553 0 -1 -0.447 -1 -1 v -5.232 c 0 -0.553 0.447 -1 1 -1 s 1 0.447 1 1 v 5.232 C 58.728 60.69 58.28 61.138 57.728 61.138 z" style="stroke: none; stroke-width: 1; stroke-dasharray: none; stroke-linecap: butt; stroke-linejoin: miter; stroke-miterlimit: 10; fill: rgb(0,0,0); fill-rule: nonzero; opacity: 1;" transform=" matrix(1 0 0 1 0 0) " stroke-linecap="round"/>
</g>
</svg>